HIERARCHY
ROOT Hips
{
 OFFSET 0.000000 0.000000 0.000000
 CHANNELS 6 Xposition Yposition Zposition Yrotation Xrotation Zrotation
 JOINT Chest
 {
  OFFSET 0.000000 10.354800 0.006500
  CHANNELS 3 Yrotation Xrotation Zrotation
  JOINT Chest2
  {
   OFFSET 0.000000 10.435800 -0.013200
   CHANNELS 3 Yrotation Xrotation Zrotation
   JOINT Chest3
   {
    OFFSET 0.000000 10.393700 0.000000
    CHANNELS 3 Yrotation Xrotation Zrotation
    JOINT Chest4
    {
     OFFSET 0.000000 10.383100 0.000000
     CHANNELS 3 Yrotation Xrotation Zrotation
     JOINT Neck
     {
      OFFSET 0.000000 15.694000 0.000000
      CHANNELS 3 Yrotation Xrotation Zrotation
      JOINT Head
      {
       OFFSET 0.000000 9.711000 -0.028000
       CHANNELS 3 Yrotation Xrotation Zrotation
       End Site
       {
        OFFSET 0.000000 18.578700 -0.014800
       }
      }
     }
     JOINT RightCollar
     {
      OFFSET -3.157200 10.367500 0.000000
      CHANNELS 3 Yrotation Xrotation Zrotation
      JOINT RightShoulder
      {
       OFFSET -14.482500 0.000000 0.000000
       CHANNELS 3 Yrotation Xrotation Zrotation
       JOINT RightElbow
       {
        OFFSET 0.000000 -31.707800 0.000000
        CHANNELS 3 Yrotation Xrotation Zrotation
        JOINT RightWrist
        {
         OFFSET 0.000000 -25.659300 0.000000
         CHANNELS 3 Yrotation Xrotation Zrotation
         End Site
         {
          OFFSET 0.000000 -18.994300 0.000000
         }
        }
       }
      }
     }
     JOINT LeftCollar
     {
      OFFSET 3.157200 10.367500 0.000000
      CHANNELS 3 Yrotation Xrotation Zrotation
      JOINT LeftShoulder
      {
       OFFSET 14.482500 0.000000 0.000000
       CHANNELS 3 Yrotation Xrotation Zrotation
       JOINT LeftElbow
       {
        OFFSET 0.000000 -31.707800 0.000000
        CHANNELS 3 Yrotation Xrotation Zrotation
        JOINT LeftWrist
        {
         OFFSET 0.000000 -25.659300 0.000000
         CHANNELS 3 Yrotation Xrotation Zrotation
         End Site
         {
          OFFSET 0.000000 -18.994300 0.000000
         }
        }
       }
      }
     }
    }
   }
  }
 }
 JOINT RightHip
 {
  OFFSET -8.365600 -0.032100 -0.003200
  CHANNELS 3 Yrotation Xrotation Zrotation
  JOINT RightKnee
  {
   OFFSET 0.000000 -43.980000 0.003100
   CHANNELS 3 Yrotation Xrotation Zrotation
   JOINT RightAnkle
   {
    OFFSET 0.000000 -42.882800 0.005200
    CHANNELS 3 Yrotation Xrotation Zrotation
    JOINT RightToe
    {
     OFFSET 0.000000 -4.915500 10.826300
     CHANNELS 3 Yrotation Xrotation Zrotation
     End Site
     {
      OFFSET 0.000000 -1.517500 6.175900
     }
    }
   }
  }
 }
 JOINT LeftHip
 {
  OFFSET 8.365600 -0.032100 -0.003200
  CHANNELS 3 Yrotation Xrotation Zrotation
  JOINT LeftKnee
  {
   OFFSET 0.000000 -43.980000 0.003100
   CHANNELS 3 Yrotation Xrotation Zrotation
   JOINT LeftAnkle
   {
    OFFSET 0.000000 -42.882800 0.005200
    CHANNELS 3 Yrotation Xrotation Zrotation
    JOINT LeftToe
    {
     OFFSET 0.000000 -4.915500 10.826300
     CHANNELS 3 Yrotation Xrotation Zrotation
     End Site
     {
      OFFSET 0.000000 -1.517500 6.175900
     }
    }
   }
  }
 }
}
MOTION
Frames: 13
Frame Time: 0.008333
93.360307 126.464619 122.896253 176.385653 -20.229378 -3.777351 -2.926704 14.644112 3.756384 -0.315693 1.370337 0.380769 -0.525422 2.304140 0.635773 -2.657954 13.022062 3.346635 -2.460535 21.491118 -2.827343 -2.013274 -2.743681 -2.450250 2.537058 5.334817 -5.000569 5.051792 -4.491409 -6.463979 -84.046171 -50.570863 122.839037 -24.785970 -15.996269 -37.165366 -2.089666 4.919736 -1.820373 0.607983 -3.518025 1.244269 77.243842 -53.976996 -130.365985 26.083608 -4.095772 46.143583 9.720586 -61.889332 2.681148 -61.671578 78.845116 -56.261881 2.745274 -1.022911 -14.360465 0.009566 0.024255 0.004345 -21.694216 -60.928909 16.709150 72.255883 80.682705 67.351243 -6.263616 -6.338407 -1.148970 -0.003877 -0.001932 -0.001760
93.359630 126.484286 122.910127 176.413774 -20.486196 -3.828262 -2.924911 14.712366 3.762223 -0.316743 1.377841 0.379944 -0.527115 2.316298 0.634233 -2.660977 13.056869 3.328048 -2.440842 21.529137 -2.827842 -2.012846 -2.669169 -2.431430 2.433071 5.372133 -4.983644 5.063600 -4.102600 -6.477366 -83.428340 -50.471316 122.596727 -24.790729 -15.919289 -37.210085 -1.990643 4.959458 -1.832307 0.985851 -2.918070 1.247314 77.378075 -54.016174 -130.587769 25.987140 -4.352804 46.522048 9.648194 -61.689937 2.680002 -62.749985 79.010974 -57.300147 2.835889 -1.726290 -14.316775 0.012773 0.061461 0.005806 -21.604875 -60.686207 16.576849 72.230986 80.699506 67.347772 -6.244300 -6.343845 -1.162411 0.001432 0.009071 0.000650
93.353794 126.502615 122.926465 176.459875 -20.729072 -3.854527 -2.938395 14.760642 3.738805 -0.317744 1.384605 0.378847 -0.528797 2.327278 0.632205 -2.664774 13.088505 3.307864 -2.423687 21.569345 -2.827511 -1.996573 -2.615028 -2.429770 2.322231 5.422632 -4.969348 5.071821 -3.735657 -6.467835 -82.832898 -50.373467 122.360273 -24.803546 -15.841590 -37.241580 -1.900195 5.014608 -1.842105 1.369188 -2.363771 1.242191 77.460379 -54.036389 -130.768591 25.915194 -4.586735 46.806646 9.602980 -61.499741 2.616165 -64.062757 79.160304 -58.574481 2.934902 -2.514066 -14.280018 0.010385 0.070576 0.004721 -21.491127 -60.466049 16.396307 72.195570 80.717017 67.331319 -6.226360 -6.345633 -1.176560 0.012699 0.019251 0.005768
93.345859 126.520113 122.943410 176.508813 -20.968886 -3.867592 -2.949510 14.801731 3.700275 -0.318465 1.390244 0.377536 -0.529986 2.336365 0.629808 -2.667375 13.115166 3.287397 -2.407756 21.611954 -2.825287 -1.984508 -2.561752 -2.428723 2.206475 5.482445 -4.958431 5.064898 -3.385831 -6.432100 -82.254461 -50.272619 122.129998 -24.819401 -15.753134 -37.257944 -1.812543 5.090078 -1.849584 1.752057 -1.857490 1.229582 77.494346 -54.041570 -130.899271 25.877509 -4.776287 46.982570 9.587248 -61.312927 2.513906 -65.601236 79.286153 -60.069143 3.041346 -3.393255 -14.241303 0.001573 0.069114 0.000716 -21.354737 -60.257040 16.179912 72.186012 80.745543 67.347837 -6.188379 -6.350115 -1.191701 0.017620 0.025441 0.008004
93.336944 126.536050 122.962055 176.564099 -21.196136 -3.875774 -2.960949 14.830026 3.653894 -0.318766 1.394101 0.375946 -0.530401 2.342648 0.627124 -2.667772 13.134401 3.267686 -2.392867 21.655495 -2.820598 -1.937804 -2.561564 -2.466857 2.087974 5.545267 -4.951254 5.040725 -3.040275 -6.368773 -81.702159 -50.171940 121.916514 -24.835066 -15.655690 -37.262067 -1.723690 5.186620 -1.850096 2.121512 -1.397673 1.203855 77.487817 -54.035557 -130.979561 25.875141 -4.908750 47.051889 9.588744 -61.141375 2.386495 -67.254505 79.407052 -61.676607 3.186185 -4.317820 -14.219536 -0.001324 0.057210 -0.000601 -21.222149 -60.062828 15.965384 72.284230 80.741853 67.458607 -6.186210 -6.353483 -1.190913 0.013841 0.029478 0.006287
93.329666 126.550326 122.982428 176.618716 -21.408556 -3.891403 -2.964678 14.848340 3.616790 -0.318415 1.396298 0.374244 -0.529707 2.346311 0.624316 -2.663850 13.146770 3.250062 -2.381783 21.694209 -2.814471 -1.914172 -2.536748 -2.477629 1.971156 5.602014 -4.949957 5.000120 -2.689679 -6.278585 -81.185607 -50.080460 121.731741 -24.852725 -15.563152 -37.259687 -1.632903 5.294543 -1.842787 2.466366 -0.975491 1.164431 77.453716 -54.019057 -131.030267 25.901583 -4.985978 47.031149 9.568907 -60.989697 2.282117 -68.905867 79.535748 -63.285963 3.359383 -5.243877 -14.215645 0.005942 0.035394 0.002699 -21.103387 -59.880870 15.775224 72.383939 80.743861 67.574969 -6.188337 -6.360365 -1.190331 0.012313 0.034918 0.005593
93.324430 126.561185 123.008602 176.658085 -21.579179 -3.912708 -2.948988 14.832580 3.596679 -0.317288 1.397586 0.372644 -0.527788 2.348450 0.621572 -2.653868 13.155407 3.235058 -2.376352 21.721756 -2.807770 -1.910073 -2.504874 -2.471950 1.860866 5.640806 -4.954872 4.937597 -2.328554 -6.167473 -80.709379 -49.999392 121.581589 -24.872484 -15.486002 -37.251079 -1.538995 5.398434 -1.830301 2.784138 -0.580755 1.114838 77.405442 -53.992684 -131.070614 25.949005 -5.009996 46.943968 9.529462 -60.884255 2.216369 -70.505103 79.664203 -64.844725 3.484121 -6.134397 -14.226997 0.006481 0.008011 0.002943 -20.974271 -59.760500 15.596702 72.581622 80.766874 67.822801 -6.162016 -6.349696 -1.191350 0.002991 0.013303 0.001358
93.319823 126.573793 123.026841 176.716391 -21.783327 -3.939803 -2.944423 14.862192 3.577485 -0.315642 1.398359 0.371086 -0.525054 2.349751 0.618952 -2.639535 13.162120 3.221813 -2.375453 21.735312 -2.799504 -1.911157 -2.489188 -2.463382 1.757914 5.652647 -4.963720 4.851883 -1.952078 -6.038629 -80.275150 -49.935554 121.469932 -24.892852 -15.431050 -37.231746 -1.441362 5.485488 -1.813598 3.084756 -0.207127 1.057954 77.347440 -53.958302 -131.106623 26.007194 -4.982327 46.812778 9.448520 -60.742400 2.183906 -71.989607 79.781675 -66.292751 3.621550 -6.974002 -14.266610 0.030122 -0.016678 0.013672 -20.876459 -59.591751 15.438278 72.728524 80.777972 67.984159 -6.159121 -6.360644 -1.186250 0.003760 0.019228 0.001708
93.321759 126.584008 123.049467 176.771016 -21.949408 -4.000930 -2.926183 14.868500 3.598575 -0.313506 1.398598 0.369550 -0.521495 2.350175 0.616481 -2.621265 13.166738 3.210202 -2.377314 21.736786 -2.788937 -1.915567 -2.487729 -2.451570 1.663301 5.641271 -4.971978 4.746511 -1.563366 -5.893207 -79.886611 -49.901065 121.395260 -24.911591 -15.395396 -37.191851 -1.341490 5.553402 -1.795477 3.383894 0.146793 0.998771 77.280134 -53.921349 -131.147523 26.068445 -4.914868 46.652620 9.300067 -60.616197 2.263106 -73.266214 79.840117 -67.543719 3.765131 -7.755840 -14.321433 0.075711 -0.020918 0.034362 -20.862675 -59.447175 15.380777 72.878812 80.790152 68.145298 -6.149412 -6.363776 -1.174253 -0.003767 0.019318 -0.001711
93.319761 126.589431 123.080288 176.804482 -22.048840 -4.032472 -2.896615 14.818842 3.600515 -0.310633 1.398206 0.368096 -0.516712 2.349562 0.614142 -2.596736 13.168933 3.200881 -2.381621 21.729362 -2.776909 -1.922727 -2.496727 -2.437601 1.577525 5.615553 -4.974734 4.622068 -1.171728 -5.738378 -79.544738 -49.896251 121.350020 -24.919979 -15.371679 -37.127866 -1.245430 5.604820 -1.777267 3.691061 0.480796 0.940292 77.204538 -53.888975 -131.201999 26.123935 -4.830107 46.481376 9.222581 -60.556635 2.291776 -74.423654 79.867478 -68.668033 3.758616 -8.444066 -14.363846 0.085283 0.000360 0.038719 -20.839196 -59.375138 15.330981 73.006073 80.799439 68.284070 -6.138594 -6.365498 -1.167500 -0.002485 0.024049 -0.001128
93.312978 126.593604 123.110711 176.820078 -22.131513 -4.028156 -2.860074 14.760594 3.573484 -0.306995 1.397190 0.366816 -0.510635 2.347926 0.612066 -2.565278 13.168735 3.194819 -2.388147 21.715463 -2.765547 -1.932121 -2.513074 -2.423763 1.500994 5.580331 -4.973503 4.486052 -0.781311 -5.581180 -79.255911 -49.913809 121.332070 -24.911304 -15.355905 -37.047398 -1.157674 5.643029 -1.760912 4.003732 0.794202 0.882936 77.127283 -53.862565 -131.269644 26.164139 -4.745835 46.314400 9.202387 -60.534594 2.262166 -75.565678 79.893645 -69.776205 3.690174 -9.004419 -14.398563 0.059794 0.005560 0.027149 -20.760558 -59.329346 15.237924 73.117288 80.807722 68.410929 -6.151399 -6.366461 -1.167636 0.005975 0.025373 0.002714
93.311491 126.601192 123.132280 176.834833 -22.252047 -4.047805 -2.819031 14.748465 3.570506 -0.302748 1.395616 0.365729 -0.503524 2.345409 0.610311 -2.528398 13.166319 3.191808 -2.395212 21.698296 -2.757407 -1.941447 -2.533139 -2.413204 1.434698 5.538843 -4.973540 4.356669 -0.390986 -5.423025 -79.031722 -49.947330 121.341722 -24.885097 -15.342026 -36.959266 -1.075577 5.672760 -1.750032 4.310936 1.087913 0.827414 77.066010 -53.845464 -131.350874 26.190384 -4.668886 46.155981 9.107767 -60.475338 2.334812 -76.587345 79.888884 -70.780392 3.693456 -9.460750 -14.446940 0.057918 -0.006190 0.026293 -20.689451 -59.238022 15.164028 73.243106 80.815712 68.547005 -6.165851 -6.367161 -1.158030 0.006292 0.023217 0.002858
93.311745 126.612874 123.143114 176.843994 -22.421410 -4.069682 -2.775181 14.788976 3.568249 -0.298125 1.393402 0.364653 -0.495837 2.341950 0.608570 -2.488602 13.161461 3.189952 -2.400137 21.681243 -2.751747 -1.947872 -2.553155 -2.405815 1.378731 5.497799 -4.973041 4.243526 -0.006651 -5.264880 -78.865841 -49.993441 121.371983 -24.843801 -15.325189 -36.874113 -0.995347 5.699584 -1.743645 4.603517 1.362096 0.774484 77.035153 -53.843318 -131.447010 26.205086 -4.605325 46.010105 8.975548 -60.360649 2.465403 -77.460574 79.861943 -71.650652 3.729028 -9.824643 -14.499469 0.065114 -0.022873 0.029552 -20.581431 -59.096151 15.065666 73.331710 80.821290 68.625975 -6.170535 -6.351755 -1.120341 -0.009203 0.011150 -0.004179
